<svg xmlns="http://www.w3.org/2000/svg" viewBox="0 0 1024 1024"><path d="M920 856.5L711.424 643.301c43.042-56.351 68.628-126.752 68.628-203.144 0-185.007-149.958-334.988-334.923-334.988-184.964 0-334.923 149.981-334.923 334.988s149.959 334.966 334.923 334.966c80.383 0 154.145-28.333 211.869-75.545l209.104 209.091L920 856.5zM445.086 685.757c-135.66 0-245.603-109.983-245.603-245.666 0-135.638 109.942-245.644 245.603-245.644S690.73 304.453 690.73 440.091c-.001 135.682-109.984 245.666-245.644 245.666z"/></svg>